<?xml version="1.0" encoding="UTF-8" standalone="no"?>
<!DOCTYPE svg PUBLIC "-//W3C//DTD SVG 1.1//EN" "http://www.w3.org/Graphics/SVG/1.1/DTD/svg11.dtd">
<svg width="100%" height="100%" viewBox="0 0 1024 1024" version="1.1" xmlns="http://www.w3.org/2000/svg" xmlns:xlink="http://www.w3.org/1999/xlink" xml:space="preserve" xmlns:serif="http://www.serif.com/" style="fill-rule:evenodd;clip-rule:evenodd;stroke-linejoin:round;stroke-miterlimit:2;">
    <g id="Dimple-Glass" transform="matrix(0.948148,0,0,0.948148,-67.3185,31.2889)">
        <rect x="71" y="-33" width="1080" height="1080" style="fill:none;"/>
        <clipPath id="_clip1">
            <rect x="71" y="-33" width="1080" height="1080"/>
        </clipPath>
        <g clip-path="url(#_clip1)">
            <g transform="matrix(1.05469,0,0,1.05469,-1074.39,-33)">
                <path d="M1161.81,128.504C1163.56,83.787 1164.78,51 1164.78,51L1743.22,51C1743.22,51 1744.44,83.568 1746.18,128.016C1714.92,128.742 1689.77,154.342 1689.77,185.77L1689.77,326.23C1689.77,358.114 1715.66,384 1747.54,384C1751.08,384 1754.55,383.68 1757.91,383.069C1757.3,394.853 1753.53,410.562 1749.75,433.996C1735.84,404.462 1705.79,384 1671,384C1622.98,384 1584,422.983 1584,471L1584,553C1584,601.017 1622.98,640 1671,640C1700.25,640 1726.15,625.532 1741.93,603.366C1739.53,616.14 1734.3,634.98 1727.87,657.738C1726.15,657.337 1724.38,657.036 1722.58,656.841C1698.31,654.206 1676.47,671.773 1673.83,696.044L1652.3,894.41C1651,906.414 1654.64,917.825 1661.59,926.612L1660.64,930.677C1660.64,930.677 1657.35,960.001 1461.39,960C1311.84,959.999 1266.79,945.541 1253.21,936.93C1267.4,928.283 1276.11,911.958 1274.2,894.356L1252.67,695.99C1250.04,671.719 1228.2,654.153 1203.92,656.787C1195.78,657.671 1188.39,660.719 1182.26,665.296C1173.07,632.775 1165.81,607.263 1164.78,594.384C1164,584.617 1164.71,576.87 1165.44,566.109C1171.77,607.916 1207.9,640 1251.46,640C1299.48,640 1338.46,601.017 1338.46,553L1338.46,471C1338.46,422.983 1299.48,384 1251.46,384C1203.44,384 1164.46,422.983 1164.46,471L1164.46,486.434C1160.08,428.803 1150.26,399.549 1150.01,380.637C1156.09,382.815 1162.64,384 1169.46,384C1201.34,384 1227.23,358.114 1227.23,326.23L1227.23,185.77C1227.23,153.886 1201.34,128 1169.46,128C1166.86,128 1164.31,128.172 1161.81,128.504ZM1649.04,730.874C1651.15,682.904 1613.91,642.247 1565.94,640.139C1517.97,638.031 1477.31,675.266 1475.21,723.236L1470.2,837.126C1468.09,885.096 1505.33,925.753 1553.3,927.861C1601.27,929.969 1641.93,892.734 1644.04,844.764L1649.04,730.874ZM1277.47,730.82C1275.36,682.85 1312.6,642.193 1360.57,640.085C1408.54,637.978 1449.19,675.212 1451.3,723.182L1456.31,837.073C1458.41,885.043 1421.18,925.7 1373.21,927.808C1325.24,929.915 1284.58,892.681 1282.47,844.71L1277.47,730.82ZM1565.23,488C1565.23,430.601 1518.63,384 1461.23,384C1403.83,384 1357.23,430.601 1357.23,488L1357.23,536C1357.23,593.399 1403.83,640 1461.23,640C1518.63,640 1565.23,593.399 1565.23,536L1565.23,488ZM1445,227.5C1445,172.584 1400.42,128 1345.5,128C1290.58,128 1246,172.584 1246,227.5L1246,284.5C1246,339.416 1290.58,384 1345.5,384C1400.42,384 1445,339.416 1445,284.5L1445,227.5ZM1671,227.5C1671,172.584 1626.42,128 1571.5,128C1516.58,128 1472,172.584 1472,227.5L1472,284.5C1472,339.416 1516.58,384 1571.5,384C1626.42,384 1671,339.416 1671,284.5L1671,227.5Z" style="fill:white;fill-opacity:0.33;"/>
            </g>
            <g transform="matrix(1.05469,0,0,1.05469,-1074.39,-33)">
                <path d="M1763.95,768.666C1761.06,778.888 1758.21,789.365 1755.46,800C1734.99,879.188 1706.46,992 1706.46,992C1706.46,992 1702.55,1024 1470,1024C1217.26,1024 1216,992 1216,992C1216,992 1187.47,879.188 1167,800C1146.53,720.812 1120.22,650.396 1118,625C1115.78,599.604 1123.63,586.719 1118,512C1112.37,437.281 1097.45,404.832 1101,384C1104.55,363.168 1118,32 1118,32L1804.46,32C1804.46,32 1805.79,64.735 1807.72,110.257C1819.8,118.526 1836.68,127.424 1854,128C1886.79,129.089 2076.91,107.608 2078,224C2078.76,305.396 2079.54,733.856 1950,736C1820.46,738.144 1863.3,735.992 1822,736C1803.29,736.004 1781.83,751.6 1763.95,768.666ZM1164.78,51L1743.22,51C1743.22,51 1754.55,354.46 1757.55,373.548C1760.54,392.637 1747.97,422.371 1743.22,490.839C1738.47,559.306 1745.09,571.113 1743.22,594.384C1741.35,617.656 1719.18,682.18 1701.93,754.742C1684.68,827.304 1660.64,930.677 1660.64,930.677C1660.64,930.677 1657.35,960.001 1461.39,960C1248.42,959.999 1247.36,930.677 1247.36,930.677C1247.36,930.677 1223.32,827.304 1206.07,754.742C1188.82,682.18 1166.65,617.656 1164.78,594.384C1162.91,571.113 1169.53,559.306 1164.78,490.839C1160.03,422.371 1147.46,392.637 1150.45,373.548C1153.45,354.46 1164.78,51 1164.78,51ZM1803.83,596.173C1802.58,579.77 1801.05,557.198 1804.46,512C1810.09,437.281 1825.01,404.832 1821.46,384C1819.95,375.122 1816.63,309.871 1813.33,237.924C1824.93,230.671 1839.53,224 1854,224C1885.69,224 1982,213.843 1982,268C1982,322.157 1977.6,640 1932,640L1854,640C1829.04,640 1813.39,618.703 1803.83,596.173Z" style="fill:white;fill-opacity:0.5;"/>
            </g>
        </g>
    </g>
</svg>
