<?xml version="1.0" encoding="UTF-8" standalone="no"?>
<!DOCTYPE svg PUBLIC "-//W3C//DTD SVG 1.1//EN" "http://www.w3.org/Graphics/SVG/1.1/DTD/svg11.dtd">
<svg width="100%" height="100%" viewBox="0 0 1024 1024" version="1.1" xmlns="http://www.w3.org/2000/svg" xmlns:xlink="http://www.w3.org/1999/xlink" xml:space="preserve" xmlns:serif="http://www.serif.com/" style="fill-rule:evenodd;clip-rule:evenodd;stroke-linejoin:round;stroke-miterlimit:2;">
    <g transform="matrix(1,0,0,1,-1086,0)">
        <g id="glass" transform="matrix(0.948148,0,0,0.948148,1018.68,31.2889)">
            <rect x="71" y="-33" width="1080" height="1080" style="fill:none;"/>
            <g transform="matrix(1.09204,0,0,1.09204,-1134.08,-36.3047)">
                <path d="M1843.18,32.027C1850.91,32.015 1841.15,22.347 1863.02,22.345C1881.45,22.343 1879.71,32.004 1879.73,32.034C1879.91,32.323 1869.13,133.592 1869.13,170.689C1869.13,207.787 1879.73,254.965 1879.73,300.514C1879.73,346.062 1852.21,388.23 1847.93,421.506C1843.65,454.782 1802.67,952.898 1801.12,975.246C1799.78,994.677 1396.45,999.69 1394.88,976.876C1393.33,954.529 1352.35,456.412 1348.07,423.136C1343.79,389.86 1316.27,347.692 1316.27,302.144C1316.27,256.595 1326.87,209.417 1326.87,172.32C1326.87,135.222 1316.09,33.953 1316.27,33.664C1316.3,33.63 1317.24,21.015 1335.3,20.998C1350.93,20.983 1352.79,33.51 1352.77,33.534C1352.61,33.8 1362,127.158 1362,161.357C1362,195.557 1352.77,239.049 1352.77,281.039C1352.77,323.028 1376.72,361.903 1380.45,392.579C1384.17,423.255 1419.85,882.456 1421.19,903.057C1422.57,924.09 1773.64,919.468 1774.81,901.555C1776.15,880.953 1811.83,421.752 1815.55,391.076C1819.28,360.4 1843.23,321.526 1843.23,279.536C1843.23,237.546 1834,194.054 1834,159.854C1834,125.655 1843.39,32.298 1843.23,32.031C1843.23,32.03 1843.21,32.028 1843.18,32.027Z" style="fill:white;fill-opacity:0.5;"/>
            </g>
        </g>
    </g>
</svg>
