<?xml version="1.0" encoding="UTF-8" standalone="no"?>
<!DOCTYPE svg PUBLIC "-//W3C//DTD SVG 1.1//EN" "http://www.w3.org/Graphics/SVG/1.1/DTD/svg11.dtd">
<svg width="100%" height="100%" viewBox="0 0 1024 1024" version="1.1" xmlns="http://www.w3.org/2000/svg" xmlns:xlink="http://www.w3.org/1999/xlink" xml:space="preserve" xmlns:serif="http://www.serif.com/" style="fill-rule:evenodd;clip-rule:evenodd;stroke-linejoin:round;stroke-miterlimit:2;">
    <g transform="matrix(1,0,0,1,0,-1132)">
        <g id="Boot-Glass" transform="matrix(0.948148,0,0,0.948148,-67.3185,1163.29)">
            <rect x="71" y="-33" width="1080" height="1080" style="fill:none;"/>
            <clipPath id="_clip1">
                <rect x="71" y="-33" width="1080" height="1080"/>
            </clipPath>
            <g clip-path="url(#_clip1)">
                <g transform="matrix(1.05469,0,0,1.05469,-1074.39,-1226.91)">
                    <path d="M1400,2140C1405.74,2162.68 1500,2150 1500,2150C1500,2150 1514.24,2124.42 1534,2124C1659.76,2121.34 1625.06,2156 1662,2156C1698.94,2156 1830.3,2151.74 1854,2140C1877.7,2128.26 1918.35,2092.63 1886,2060C1853.65,2027.37 1630,2004.26 1630,1900C1630,1795.74 1711,1386.97 1711,1292C1711,1197.03 1694,1164 1694,1164L1342,1164C1342,1164 1322,1198.42 1322,1292C1322,1385.58 1406,1834.7 1406,1900C1406,1965.3 1374,2027.34 1374,2060C1374,2092.66 1394.26,2117.32 1400,2140ZM1424,2108C1429.12,2130.83 1514.24,2092.42 1534,2092C1659.76,2089.34 1657.06,2124 1694,2124C1730.94,2124 1791.28,2124.31 1830,2124C1847.43,2123.86 1894.35,2107.63 1862,2075C1829.65,2042.37 1606,2019.26 1606,1915C1606,1810.74 1687,1401.97 1687,1307C1687,1212.03 1670,1179 1670,1179L1366,1179C1366,1179 1346,1213.42 1346,1307C1346,1400.58 1430,1849.7 1430,1915C1430,1980.3 1412,2027.34 1412,2060C1412,2092.66 1420.26,2091.32 1424,2108Z" style="fill:white;fill-opacity:0.5;"/>
                </g>
            </g>
        </g>
    </g>
</svg>
