<?xml version="1.0" encoding="UTF-8" standalone="no"?>
<!DOCTYPE svg PUBLIC "-//W3C//DTD SVG 1.1//EN" "http://www.w3.org/Graphics/SVG/1.1/DTD/svg11.dtd">
<svg width="100%" height="100%" viewBox="0 0 1024 1024" version="1.1" xmlns="http://www.w3.org/2000/svg" xmlns:xlink="http://www.w3.org/1999/xlink" xml:space="preserve" xmlns:serif="http://www.serif.com/" style="fill-rule:evenodd;clip-rule:evenodd;stroke-linejoin:round;stroke-miterlimit:2;">
    <g transform="matrix(1,0,0,1,0,-4528)">
        <g id="Pilsner-Glass" transform="matrix(0.948148,0,0,0.948148,-67.3185,4559.29)">
            <rect x="71" y="-33" width="1080" height="1080" style="fill:none;"/>
            <g transform="matrix(1.05469,0,0,1.05469,-1074.39,-4808.62)">
                <path d="M1766,4544C1783.39,4544.6 1781.68,4558.01 1781.7,4558.03C1781.9,4558.33 1778.12,4865.83 1750,4976C1716.97,5105.42 1702,5281.69 1702,5344C1702,5407.13 1742,5425.57 1742,5528C1742,5551.17 1454,5553.17 1454,5528C1454,5423.05 1494.01,5407.12 1494,5344C1493.99,5281.51 1481.12,5104.33 1446,4976C1415.95,4866.21 1411.1,4560.02 1411.3,4559.72C1411.32,4559.69 1412.26,4544.47 1430,4544L1766,4544ZM1766,4560C1783.39,4560.6 1762.12,4865.83 1734,4976C1700.97,5105.42 1686,5281.69 1686,5344C1686,5407.13 1697.02,5432.38 1697,5435C1696.83,5459.42 1493.99,5461.17 1494,5436C1494,5435.05 1510.01,5407.12 1510,5344C1509.99,5281.51 1497.12,5104.33 1462,4976C1431.95,4866.21 1412.26,4560.47 1430,4560L1766,4560Z" style="fill:white;fill-opacity:0.5;"/>
            </g>
        </g>
    </g>
</svg>
