<?xml version="1.0" encoding="UTF-8" standalone="no"?>
<!DOCTYPE svg PUBLIC "-//W3C//DTD SVG 1.1//EN" "http://www.w3.org/Graphics/SVG/1.1/DTD/svg11.dtd">
<svg width="100%" height="100%" viewBox="0 0 1024 1024" version="1.1" xmlns="http://www.w3.org/2000/svg" xmlns:xlink="http://www.w3.org/1999/xlink" xml:space="preserve" xmlns:serif="http://www.serif.com/" style="fill-rule:evenodd;clip-rule:evenodd;stroke-linejoin:round;stroke-miterlimit:2;">
    <g transform="matrix(1,0,0,1,-1102,-6792)">
        <g id="Pint-Fill" transform="matrix(0.948148,0,0,0.948148,1034.68,6823.29)">
            <rect x="71" y="-33" width="1080" height="1080" style="fill:none;"/>
            <clipPath id="_clip1">
                <rect x="71" y="-33" width="1080" height="1080"/>
            </clipPath>
            <g clip-path="url(#_clip1)">
                <g transform="matrix(1.09204,0,0,1.09204,-1134.08,-36.3047)">
                    <path d="M1316.27,33.664C1316.28,33.651 1327.7,37.03 1352.77,32C1394.09,23.712 1392.3,4.848 1598,3.026C1831.31,0.96 1792.28,22.908 1843.23,32C1866.15,36.091 1879.72,32.027 1879.73,32.034C1879.91,32.323 1869.13,133.592 1869.13,170.689C1869.13,207.787 1879.73,254.965 1879.73,300.514C1879.73,346.062 1852.21,388.23 1847.93,421.506C1843.65,454.782 1802.67,952.898 1801.12,975.246C1799.78,994.677 1396.45,999.69 1394.88,976.876C1393.33,954.529 1352.35,456.412 1348.07,423.136C1343.79,389.86 1316.27,347.692 1316.27,302.144C1316.27,256.595 1326.87,209.417 1326.87,172.32C1326.87,135.222 1316.09,33.953 1316.27,33.664Z"/>
                </g>
            </g>
        </g>
    </g>
</svg>
