<?xml version="1.0" encoding="UTF-8" standalone="no"?>
<!DOCTYPE svg PUBLIC "-//W3C//DTD SVG 1.1//EN" "http://www.w3.org/Graphics/SVG/1.1/DTD/svg11.dtd">
<svg width="100%" height="100%" viewBox="0 0 1024 1024" version="1.1" xmlns="http://www.w3.org/2000/svg" xmlns:xlink="http://www.w3.org/1999/xlink" xml:space="preserve" xmlns:serif="http://www.serif.com/" style="fill-rule:evenodd;clip-rule:evenodd;stroke-linejoin:round;stroke-miterlimit:2;">
    <g transform="matrix(1,0,0,1,0,-6792)">
        <g id="Pint-Glass" transform="matrix(0.948148,0,0,0.948148,-67.3185,6823.29)">
            <rect x="71" y="-33" width="1080" height="1080" style="fill:none;"/>
            <g transform="matrix(1.05469,0,0,1.05469,-1074.39,-33)">
                <path d="M1874,19.029C1891.39,19.625 1889.68,30.005 1889.7,30.035C1889.9,30.334 1878.73,135.19 1878.73,173.601C1878.73,212.013 1889.7,260.862 1889.7,308.023C1889.7,355.185 1861.22,398.847 1856.78,433.301C1852.35,467.755 1809.92,983.514 1808.32,1006.65C1806.93,1026.77 1389.31,1031.96 1387.68,1008.34C1386.08,985.201 1343.65,469.443 1339.22,434.989C1334.79,400.535 1306.3,356.873 1306.3,309.711C1306.3,262.55 1317.27,213.701 1317.27,175.289C1317.27,136.878 1306.1,32.022 1306.3,31.723C1306.32,31.688 1307.26,19.095 1325,18.622L1325,18.608L1874,18.608L1874,19.029ZM1851.88,30.608C1851.25,38.64 1842.36,128.519 1842.36,162.383C1842.36,197.793 1851.91,242.826 1851.91,286.303C1851.91,329.78 1827.11,370.031 1823.26,401.793C1819.4,433.556 1782.46,909.02 1781.07,930.351C1779.86,948.899 1416.35,953.684 1414.93,931.907C1413.54,910.576 1376.6,435.112 1372.74,403.349C1368.89,371.587 1344.09,331.336 1344.09,287.859C1344.09,244.382 1353.64,199.349 1353.64,163.938C1353.64,128.528 1343.92,31.864 1344.09,31.588C1344.09,31.584 1344.04,31.217 1343.88,30.608L1851.88,30.608Z" style="fill:white;fill-opacity:0.5;"/>
            </g>
        </g>
    </g>
</svg>
