<?xml version="1.0" encoding="UTF-8" standalone="no"?>
<!DOCTYPE svg PUBLIC "-//W3C//DTD SVG 1.1//EN" "http://www.w3.org/Graphics/SVG/1.1/DTD/svg11.dtd">
<svg width="100%" height="100%" viewBox="0 0 1024 1024" version="1.1" xmlns="http://www.w3.org/2000/svg" xmlns:xlink="http://www.w3.org/1999/xlink" xml:space="preserve" xmlns:serif="http://www.serif.com/" style="fill-rule:evenodd;clip-rule:evenodd;stroke-linejoin:round;stroke-miterlimit:2;">
    <g transform="matrix(1,0,0,1,0,-3396)">
        <g id="Tulip-Glass" transform="matrix(0.948148,0,0,0.948148,-67.3185,3427.29)">
            <rect x="71" y="-33" width="1080" height="1080" style="fill:none;"/>
            <g transform="matrix(1.05469,0,0,1.05469,-1074.39,-3614.72)">
                <path d="M1827,3428C1827,3428 1828.75,3464.63 1830,3506C1832.05,3573.38 1918,3637.88 1918,3796C1918,3995.53 1726,4076 1726,4076C1726,4076 1662,4130.88 1662,4216C1662,4323.99 1726,4329.47 1726,4356C1726,4382.53 1854,4388 1854,4388L1854,4420L1598,4411L1342,4420L1342,4388C1342,4388 1470,4382.53 1470,4356C1470,4329.47 1532,4323.99 1532,4216C1532,4130.88 1470,4076 1470,4076C1470,4076 1278,3996.53 1278,3797C1278,3638.88 1363.95,3573.38 1366,3506C1367.26,3464.63 1367,3428 1367,3428L1827,3428ZM1805.16,3443C1805.16,3443 1806.83,3464.63 1808,3506C1809.91,3573.38 1890,3637.88 1890,3796C1890,3954.12 1759,4023 1694,4068C1638.04,4106.74 1557.96,4106.74 1502,4068C1437,4023 1308.92,3955.09 1306,3797C1303.08,3638.91 1386.09,3573.38 1388,3506C1389.17,3464.63 1390.84,3443 1390.84,3443L1805.16,3443Z" style="fill:white;fill-opacity:0.5;"/>
            </g>
        </g>
    </g>
</svg>
