<?xml version="1.0" encoding="UTF-8" standalone="no"?>
<!DOCTYPE svg PUBLIC "-//W3C//DTD SVG 1.1//EN" "http://www.w3.org/Graphics/SVG/1.1/DTD/svg11.dtd">
<svg width="100%" height="100%" viewBox="0 0 1024 1024" version="1.1" xmlns="http://www.w3.org/2000/svg" xmlns:xlink="http://www.w3.org/1999/xlink" xml:space="preserve" xmlns:serif="http://www.serif.com/" style="fill-rule:evenodd;clip-rule:evenodd;stroke-linejoin:round;stroke-miterlimit:2;">
    <g transform="matrix(1,0,0,1,0,-5660)">
        <g id="Handle-Glass" transform="matrix(0.948148,0,0,0.948148,-67.3185,5691.29)">
            <rect x="71" y="-33" width="1080" height="1080" style="fill:none;"/>
            <g transform="matrix(1.05469,0,0,1.05469,-1074.39,-6002.53)">
                <path d="M1847.5,6497.53C1844.74,6593.8 1842.73,6660.73 1842.32,6666.65C1840.93,6686.77 1333.31,6691.96 1331.68,6668.34C1330.08,6645.2 1330.1,5692.02 1330.3,5691.72C1330.32,5691.69 1331.26,5679.1 1349,5678.62L1349,5678.61L1854,5678.61L1854,5679.03C1871.39,5679.62 1869.68,5690.01 1869.7,5690.03C1869.75,5690.11 1868.01,5755.45 1865.38,5852.35C1870.41,5859.7 1876.85,5865 1885,5865C2005.47,5865 2094.02,5881.9 2094,6188.5C2093.98,6481.13 1978.02,6489.99 1866,6490C1857.42,6490 1851.52,6493.29 1847.5,6497.53ZM1845.88,5690.61C1845.25,5698.64 1817.46,6499.02 1816.07,6520.35C1815.47,6529.52 1707.38,6563.32 1598,6564.22C1486,6565.14 1372.65,6532.92 1371.93,6521.91C1370.54,6500.58 1355.04,5691.22 1354.88,5690.61L1845.88,5690.61ZM1850.37,6396.39C1855.17,6406.12 1861.59,6414 1869.74,6414C1969.1,6414 2025.67,6414.22 2026,6188.5C2026.42,5899.1 1927.66,5944 1869.74,5944C1867.23,5944 1864.94,5944.34 1862.86,5944.95C1859.07,6083.69 1854.34,6255.29 1850.37,6396.39Z" style="fill:white;fill-opacity:0.5;"/>
            </g>
        </g>
    </g>
</svg>
